<?xml version="1.0" encoding="UTF-8" standalone="no"?>
<svg
   width="300"
   height="240"
   viewBox="0 0 3000 2400"
   version="1.1"
   id="svg2"
   sodipodi:docname="logo.svg"
   inkscape:version="1.3.2 (091e20ef0f, 2023-11-25, custom)"
   inkscape:export-filename="namelogo.png"
   inkscape:export-xdpi="96"
   inkscape:export-ydpi="96"
   xmlns:inkscape="http://www.inkscape.org/namespaces/inkscape"
   xmlns:sodipodi="http://sodipodi.sourceforge.net/DTD/sodipodi-0.dtd"
   xmlns="http://www.w3.org/2000/svg"
   xmlns:svg="http://www.w3.org/2000/svg">
  <defs
     id="defs2" />
  <sodipodi:namedview
     id="namedview2"
     pagecolor="#ffffff"
     bordercolor="#000000"
     borderopacity="0.25"
     inkscape:showpageshadow="2"
     inkscape:pageopacity="0.0"
     inkscape:pagecheckerboard="0"
     inkscape:deskcolor="#d1d1d1"
     inkscape:zoom="93.093068"
     inkscape:cx="162.60072"
     inkscape:cy="2.3148877"
     inkscape:window-width="1920"
     inkscape:window-height="1011"
     inkscape:window-x="1080"
     inkscape:window-y="1112"
     inkscape:window-maximized="1"
     inkscape:current-layer="svg2"
     showguides="true">
    <sodipodi:guide
       position="2129.9837,533.98684"
       orientation="1,0"
       id="guide1"
       inkscape:locked="false" />
    <sodipodi:guide
       position="870.00083,540.71489"
       orientation="1,0"
       id="guide2"
       inkscape:locked="false" />
    <sodipodi:guide
       position="1509.9951,1511.4556"
       orientation="-0.2478425,0.96880034"
       id="guide3"
       inkscape:locked="false" />
    <sodipodi:guide
       position="1509.9945,1511.571"
       orientation="0.2470665,0.96899853"
       id="guide4"
       inkscape:locked="false" />
    <sodipodi:guide
       position="1470.0379,1085.5791"
       orientation="1,0"
       id="guide5"
       inkscape:locked="false" />
    <sodipodi:guide
       position="1375.5381,1375.3645"
       orientation="0,-1"
       id="guide7"
       inkscape:locked="false" />
    <sodipodi:guide
       position="1499.9907,1190.1844"
       orientation="1,0"
       id="guide6"
       inkscape:locked="false" />
    <sodipodi:guide
       position="1530.0094,1088.3084"
       orientation="1,0"
       id="guide8"
       inkscape:locked="false" />
  </sodipodi:namedview>
  <g
     id="l7FepJA2HlIKjbTaOfBKIiU"
     fill="#ff9933"
     transform="matrix(1.38233,0,0,1.38233,-570.4212,-206.10597)">
    <g
       id="g2">
      <path
         id="pAACLOnr9"
         d="m 870,1835 v -35 h 30 30 v -174 -175 l -55,16 c -31,9 -58,13 -61,10 -3,-3 -7,-20 -7,-38 l -2,-33 60,-17 c 35,-9 61,-22 63,-30 4,-20 82,-42 82,-23 0,9 8,10 28,5 20,-5 28,-15 30,-34 4,-35 -1,-34 -139,4 -61,17 -115,27 -120,22 -4,-4 -9,-21 -11,-37 l -3,-28 175,-49 c 96,-27 176,-49 178,-49 1,0 2,32 2,70 0,39 1,70 3,70 2,0 41,-11 88,-25 46,-13 90,-25 97,-25 7,0 12,14 12,38 v 37 l -102,28 c -57,16 -133,37 -170,48 l -68,20 v 219 220 h -70 -70 z" />
      <path
         id="p1AwsLrXpS"
         d="m 1070,1661 c 0,-116 3,-212 8,-214 4,-3 22,-8 40,-12 l 32,-7 v 221 221 h -40 -40 z" />
      <path
         id="pWuIj6C5c"
         d="m 1340,1835 v -35 h 25 25 v -278 -279 l 55,-15 55,-15 55,15 55,15 v 279 278 h 25 25 v 35 35 h -65 -65 v -285 -285 h -30 -30 v 285 285 h -65 -65 z" />
      <path
         id="p1F6cuHqs0"
         d="m 1850,1650 c 0,-238 -2,-232 54,-210 l 26,10 v 210 210 h -40 -40 z" />
      <path
         id="pvoyvKgx2"
         d="m 1988,1648 -3,-221 -167,-46 -168,-46 v -37 c 0,-21 5,-38 10,-38 9,0 124,30 171,45 l 19,6 v -70 c 0,-39 1,-71 3,-71 1,0 81,22 177,49 l 175,49 -3,28 c -2,16 -7,33 -11,37 -5,5 -59,-5 -120,-22 -138,-38 -143,-39 -139,-4 2,19 10,29 31,34 19,5 27,4 27,-5 0,-10 9,-11 40,-3 22,6 40,17 40,24 0,7 28,21 63,31 l 62,19 -2,32 c 0,18 -3,35 -6,37 -3,3 -30,-1 -61,-9 l -56,-15 v 174 174 h 30 30 v 35 35 h -70 -70 z" />
      <path
         id="p10VNjL5vf"
         d="m 1192,1199 3,-42 153,-42 153,-43 152,43 152,42 3,41 3,41 -68,-19 c -37,-11 -107,-30 -155,-43 l -87,-24 -133,37 c -74,20 -144,41 -156,44 l -23,8 z" />
      <path
         id="pDmVo2rkS"
         d="m 1922.5795,993.66787 c -24,-6 -31.2905,-12.9453 -38.5795,-41.66787 -4,-15 -15,-38 -24,-52 -10,-14 -27,-43 -38,-65 -27,-54 -107,-135 -160,-163 -86,-44 -315,-17 -383,45 -14,12 -29,23 -33,23 -10,0 -56,48 -56,57 0,3 -12,22 -26,40 -17,22 -29,53 -33,86 l -7.4774,64.30224 -28.1227,5.93452 c -18.7131,8.42974 -54.6735,17.79734 -58.4469,14.53434 C 1020.953,990.7711 1058,843 1094,787 c 47,-70 53,-77 111,-118 60,-42 111,-64 184,-79 30,-6 60,-15 66,-20 23,-19 230,14 280,45 59,36 133,123 169,197 38,79 72.1664,179.60411 61.1664,185.60411 -4.2466,3.39829 -25.5869,1.06376 -42.5869,-3.93624 z"
         sodipodi:nodetypes="cccsccssccccccccccccc" />
      <path
         id="p16CCKk7d8"
         d="m 2263.5209,1054.7732 c -3.0157,-13.9695 -15.0583,-37.6981 -75.327,-37.6981 h -78.3494 l -26.1165,-31.1389 c -14.0627,-17.07615 -26.1164,-40.17917 -26.1164,-51.22844 V 913.6137 l 48.215,8.03583 c 26.1164,3.01344 77.3449,10.04479 113.5061,13.05823 85.3807,9.04031 119.533,33.14781 119.533,85.38084 0,0 6.6996,56.7489 6.2979,64.1452 -1.2303,22.6502 -38.014,7.7541 -38.014,7.7541 -26.1793,-5.3396 -41.6285,-17.3062 -43.6287,-37.2147 z"
         sodipodi:nodetypes="csccscccsssc"
         style="stroke-width:1.00448" />
      <path
         id="p16CCKk7d8-6"
         d="m 720.59485,876.95285 c 3.02283,13.08321 15.09414,35.30636 75.50652,35.30636 h 78.53607 l 26.1787,29.16327 c 14.09622,15.99277 26.1787,37.63005 26.1787,47.97827 v 19.75575 l -48.3299,-7.526 c -26.17871,-2.82224 -77.52923,-9.40749 -113.77663,-12.22975 -85.58421,-8.46672 -119.81789,-31.04475 -119.81789,-79.9638 0,0 -6.71555,-53.14855 -6.3129,-60.07558 1.23322,-21.21318 38.10461,-7.26213 38.10461,-7.26213 26.24173,5.00085 41.72773,16.20821 43.73272,34.85361 z"
         sodipodi:nodetypes="csccscccsssc"
         style="stroke-width:0.973251" />
      <path
         id="p16CCKk7d8-6-5"
         d="m 1552.8655,245.69859 c -14.5357,4.80444 -38.5,20.85247 -32.1758,89.54267 l 8.2214,89.29723 -30.366,32.8138 c -16.6795,17.6992 -39.9775,33.69872 -51.7249,34.78028 l -22.4269,2.06481 3.4842,-55.73875 c 0.4634,-30.06074 2.5635,-89.13567 1.9729,-130.64474 0.6523,-98.19604 22.6993,-139.48026 78.2327,-144.59311 0,0 59.6317,-13.19063 67.5374,-13.45678 24.2106,-0.81494 12.2331,42.56676 12.2331,42.56676 -2.93,30.36009 -14.0315,49.13936 -34.9881,53.36783 z"
         sodipodi:nodetypes="csccscccsssc"
         style="stroke-width:1.1104" />
      <path
         id="p5iyLG4gS"
         d="m 1237.9349,917.04961 c 11.9761,-52.63747 57.3372,-112.47138 115.9254,-152.12222 l 52.5307,-34.57248 69.8537,-0.24324 c 99.2125,-0.34546 193.4197,16.52126 226.9075,40.67962 30.4472,23.15748 98.5541,160.48776 98.6535,190.83115 -58.55,-13.54422 -15.5777,-4.7128 -41.3672,-9.97983 -36.7403,-7.50352 -51.6708,-11.95756 -61.9205,-50.35722 -12.3111,-49.51854 -42.7585,-72.67602 -112.6585,-86.59303 -98.2699,-20.89839 -137.7126,-8.62356 -204.2969,62.41029 -49.434,52.7679 -89.8527,76.17217 -134.3971,76.32726 -14.1732,0.0494 -16.2176,-6.01225 -9.2306,-36.3803 z"
         style="stroke-width:1.01192"
         sodipodi:nodetypes="cccsccscccsc" />
      <path
         id="pvFImyXDn"
         d="m 1464.7946,899.21816 c -2.1574,0.50131 -7.5284,1.6182 -10.3684,2.73278 -15.8552,6.22252 -18.785,5.9602 10.0886,-27.54842 23.8465,-27.67459 56.7421,-21.08396 87.123,1.20624 39.8151,29.21203 35.8007,32.8021 24.7384,29.6042 -12.9353,-3.73935 -16.5143,-5.34207 -23.6537,-6.24143 0,0 -42.3496,-11.85771 -42.6553,-11.75285 -0.306,0.1049 -26.3264,7.59693 -45.2726,11.99948 z"
         sodipodi:nodetypes="ssssssss"
         style="stroke-width:2.59991" />
      <path
         id="p1AA96coGd"
         d="m 865.75044,445.47971 c 19.0851,36.16119 43.1926,50.2239 87.38968,50.2239 48.21488,0 87.34408,35.97859 87.34408,70.13089 0,47.21052 -22.0532,62.46037 -89.35303,26.29912 -25.11198,-13.05823 -58.2598,-26.11646 -73.32698,-30.13438 -16.07167,-4.01792 -45.20163,-24.1075 -65.29122,-45.20157 -20.08958,-21.09406 -43.1926,-40.17916 -50.22395,-42.18812 -10.0448,-3.01344 -11.04927,-11.04922 -3.01344,-32.14328 l 20.71601,-47.29632 h 39.17469 40.17917 z"
         sodipodi:nodetypes="cssccscccccc"
         style="stroke-width:1.00448" />
      <path
         id="p10eejDqeS"
         d="m 1970.3828,607.38198 c -19.0851,-36.16125 -11.0493,-65.29114 28.1254,-102.45687 20.0896,-20.08958 46.2061,-51.22844 57.2553,-69.30906 11.0493,-18.08063 32.1434,-42.18813 47.2106,-53.2374 l 27.1209,-20.08958 41.1836,39.17469 c 54.2419,52.23291 52.233,110.4927 -3.0134,82.36729 -26.1164,-13.05823 -74.3314,28.12541 -83.3718,70.31354 -4.0179,23.10302 -17.0761,40.17916 -38.1702,53.23739 -40.1791,24.1075 -63.2822,24.1075 -76.3404,0 z"
         style="stroke-width:1.00448" />
    </g>
  </g>
</svg>
