<svg xmlns="http://www.w3.org/2000/svg" width="300" height="240" viewBox="0 0 3000 2400">
<g id="l3sTl7jga5PtMRPlbadD3xm" fill="rgba(0,0,0,0)" style="transform: none;"><g style="transform: none;"><path id="ppCteKPqA" d="M 240 1095 l 0 -985 1300 0 1300 0 0 985 0 985 -1300 0 -1300 0 0 -985 z  m 740 526 l 0 -219 28 -10 27 -10 -22 -1 c -12 -1 -28 -4 -36 -7 -9 -3 -16 2 -20 15 -2 10 -15 21 -28 24 l -24 4 28 2 27 1 0 204 0 205 -32 4 -33 4 43 1 42 2 0 -219 z  m 140 33 c 0 -121 -3 -183 -10 -179 -6 4 -10 77 -10 186 0 113 4 179 10 179 6 0 10 -69 10 -186 z  m 320 -99 c 0 -183 -4 -285 -10 -285 -6 0 -10 100 -10 279 l 0 280 -27 4 c -23 3 -21 4 10 6 l 37 1 0 -285 z  m 168 278 l -28 -4 0 -280 c 0 -179 -4 -279 -10 -279 -6 0 -10 102 -10 285 l 0 285 38 -1 c 30 -2 32 -3 10 -6 z  m 292 -172 c 0 -109 -4 -182 -10 -186 -7 -4 -10 58 -10 179 0 117 4 186 10 186 6 0 10 -66 10 -179 z  m 173 172 l -33 -4 0 -205 0 -204 28 -1 27 -1 -27 -10 c -16 -5 -28 -17 -28 -25 0 -10 -6 -13 -16 -9 -9 3 -25 6 -37 7 l -22 1 25 7 25 7 3 222 2 222 43 -2 42 -1 -32 -4 z  m -1223 -398 c 0 -3 -2 -5 -5 -5 -3 0 -5 2 -5 5 0 3 2 5 5 5 3 0 5 -2 5 -5 z  m 1310 0 c 0 -3 -2 -5 -5 -5 -3 0 -5 2 -5 5 0 3 2 5 5 5 3 0 5 -2 5 -5 z  m -1273 -12 c -4 -3 -10 -3 -14 0 -3 4 0 7 7 7 7 0 10 -3 7 -7 z  m 1240 0 c -4 -3 -10 -3 -14 0 -3 4 0 7 7 7 7 0 10 -3 7 -7 z  m -1060 -50 c -4 -3 -10 -3 -14 0 -3 4 0 7 7 7 7 0 10 -3 7 -7 z  m 880 0 c -4 -3 -10 -3 -14 0 -3 4 0 7 7 7 7 0 10 -3 7 -7 z  m -794 -31 l -33 -3 0 -60 0 -61 -32 8 c -65 14 -76 23 -30 23 l 44 1 -4 58 -3 58 45 -10 45 -11 -32 -3 z  m 749 -32 l -4 -60 49 -1 48 -1 -50 -14 c -27 -7 -53 -14 -57 -14 -5 0 -8 27 -8 60 l 0 60 -27 1 -28 1 40 13 c 22 8 40 14 40 14 0 1 -2 -26 -3 -59 z  m -692 25 c 0 -3 -2 -5 -5 -5 -3 0 -5 2 -5 5 0 3 2 5 5 5 3 0 5 -2 5 -5 z  m 590 0 c 0 -3 -2 -5 -5 -5 -3 0 -5 2 -5 5 0 3 2 5 5 5 3 0 5 -2 5 -5 z  m -550 -10 c 0 -3 -2 -5 -5 -5 -3 0 -5 2 -5 5 0 3 2 5 5 5 3 0 5 -2 5 -5 z  m 517 -2 c -4 -3 -10 -3 -14 0 -3 4 0 7 7 7 7 0 10 -3 7 -7 z  m -487 -8 c 0 -3 -2 -5 -5 -5 -3 0 -5 2 -5 5 0 3 2 5 5 5 3 0 5 -2 5 -5 z  m 450 0 c 0 -3 -2 -5 -5 -5 -3 0 -5 2 -5 5 0 3 2 5 5 5 3 0 5 -2 5 -5 z  m -410 -10 c 0 -3 -2 -5 -5 -5 -3 0 -5 2 -5 5 0 3 2 5 5 5 3 0 5 -2 5 -5 z  m 370 0 c 0 -3 -2 -5 -5 -5 -3 0 -5 2 -5 5 0 3 2 5 5 5 3 0 5 -2 5 -5 z  m -843 -12 c -4 -3 -10 -3 -14 0 -3 4 0 7 7 7 7 0 10 -3 7 -7 z  m 1320 0 c -4 -3 -10 -3 -14 0 -3 4 0 7 7 7 7 0 10 -3 7 -7 z  m -1287 -8 c 0 -3 -2 -5 -5 -5 -3 0 -5 2 -5 5 0 3 2 5 5 5 3 0 5 -2 5 -5 z  m 1250 0 c 0 -3 -2 -5 -5 -5 -3 0 -5 2 -5 5 0 3 2 5 5 5 3 0 5 -2 5 -5 z  m -1210 -10 c 0 -3 -2 -5 -5 -5 -3 0 -5 2 -5 5 0 3 2 5 5 5 3 0 5 -2 5 -5 z  m 1170 0 c 0 -3 -2 -5 -5 -5 -3 0 -5 2 -5 5 0 3 2 5 5 5 3 0 5 -2 5 -5 z  m -1133 -12 c -4 -3 -10 -3 -14 0 -3 4 0 7 7 7 7 0 10 -3 7 -7 z  m 571 -3 c -16 -5 -40 -5 -55 0 -23 7 -18 8 27 8 45 0 50 -1 28 -8 z  m 529 3 c -4 -3 -10 -3 -14 0 -3 4 0 7 7 7 7 0 10 -3 7 -7 z  m -1067 -8 c 0 -3 -2 -5 -5 -5 -3 0 -5 2 -5 5 0 3 2 5 5 5 3 0 5 -2 5 -5 z  m 1030 0 c 0 -3 -2 -5 -5 -5 -3 0 -5 2 -5 5 0 3 2 5 5 5 3 0 5 -2 5 -5 z  m -773 -72 c -4 -3 -10 -3 -14 0 -3 4 0 7 7 7 7 0 10 -3 7 -7 z  m 523 2 c 0 -3 -2 -5 -5 -5 -3 0 -5 2 -5 5 0 3 2 5 5 5 3 0 5 -2 5 -5 z  m -490 -10 c 0 -3 -2 -5 -5 -5 -3 0 -5 2 -5 5 0 3 2 5 5 5 3 0 5 -2 5 -5 z  m 450 0 c 0 -3 -2 -5 -5 -5 -3 0 -5 2 -5 5 0 3 2 5 5 5 3 0 5 -2 5 -5 z  m -410 -10 c 0 -3 -2 -5 -5 -5 -3 0 -5 2 -5 5 0 3 2 5 5 5 3 0 5 -2 5 -5 z  m 377 -2 c -4 -3 -10 -3 -14 0 -3 4 0 7 7 7 7 0 10 -3 7 -7 z  m -340 -10 c -4 -3 -10 -3 -14 0 -3 4 0 7 7 7 7 0 10 -3 7 -7 z  m 303 2 c 0 -3 -2 -5 -5 -5 -3 0 -5 2 -5 5 0 3 2 5 5 5 3 0 5 -2 5 -5 z  m -270 -10 c 0 -3 -2 -5 -5 -5 -3 0 -5 2 -5 5 0 3 2 5 5 5 3 0 5 -2 5 -5 z  m 230 0 c 0 -3 -2 -5 -5 -5 -3 0 -5 2 -5 5 0 3 2 5 5 5 3 0 5 -2 5 -5 z  m -193 -12 c -4 -3 -10 -3 -14 0 -3 4 0 7 7 7 7 0 10 -3 7 -7 z  m 160 0 c -4 -3 -10 -3 -14 0 -3 4 0 7 7 7 7 0 10 -3 7 -7 z  m -127 -8 c 0 -3 -2 -5 -5 -5 -3 0 -5 2 -5 5 0 3 2 5 5 5 3 0 5 -2 5 -5 z  m 90 0 c 0 -3 -2 -5 -5 -5 -3 0 -5 2 -5 5 0 3 2 5 5 5 3 0 5 -2 5 -5 z  m -33 -11 c -3 -3 -12 -4 -19 -1 -8 3 -5 6 6 6 11 1 17 -2 13 -5 z  m -707 -119 l 25 -13 -70 5 c -91 6 -97 8 -55 21 37 11 59 8 100 -13 z  m 290 -98 c 7 -56 -5 -49 -18 11 -8 32 -7 42 1 39 7 -2 14 -25 17 -50 z  m 1216 16 c -4 -5 -38 -10 -76 -13 -54 -4 -66 -2 -58 7 6 8 36 13 76 13 36 0 62 -3 58 -7 z  m -967 -65 l 58 -62 69 -12 69 -12 -54 -1 c -46 -1 -62 4 -105 33 -45 30 -74 60 -100 104 -16 27 7 9 63 -50 z  m 391 47 c 0 -3 -2 -5 -5 -5 -3 0 -5 2 -5 5 0 3 2 5 5 5 3 0 5 -2 5 -5 z  m 140 -50 c 0 -3 -2 -5 -5 -5 -3 0 -5 2 -5 5 0 3 2 5 5 5 3 0 5 -2 5 -5 z  m -10 -20 c 0 -3 -2 -5 -5 -5 -3 0 -5 2 -5 5 0 3 2 5 5 5 3 0 5 -2 5 -5 z  m -735 -15 c 3 -5 4 -10 1 -10 -3 0 -8 5 -11 10 -3 6 -4 10 -1 10 3 0 8 -4 11 -10 z  m 725 -5 c 0 -3 -2 -5 -5 -5 -3 0 -5 2 -5 5 0 3 2 5 5 5 3 0 5 -2 5 -5 z  m -705 -25 c 3 -5 4 -10 1 -10 -3 0 -8 5 -11 10 -3 6 -4 10 -1 10 3 0 8 -4 11 -10 z  m 492 4 c -3 -3 -12 -4 -19 -1 -8 3 -5 6 6 6 11 1 17 -2 13 -5 z  m -44 -11 c -7 -2 -19 -2 -25 0 -7 3 -2 5 12 5 14 0 19 -2 13 -5 z  m 217 -27 c 0 -3 -5 -8 -12 -12 -7 -4 -8 -3 -4 4 7 12 16 16 16 8 z  m -630 -11 c 0 -3 -2 -5 -5 -5 -3 0 -5 2 -5 5 0 3 2 5 5 5 3 0 5 -2 5 -5 z  m 560 -60 c 0 -3 -2 -5 -5 -5 -3 0 -5 2 -5 5 0 3 2 5 5 5 3 0 5 -2 5 -5 z  m -30 -20 c 0 -3 -2 -5 -5 -5 -3 0 -5 2 -5 5 0 3 2 5 5 5 3 0 5 -2 5 -5 z  m -380 -10 c 0 -3 -2 -5 -5 -5 -3 0 -5 2 -5 5 0 3 2 5 5 5 3 0 5 -2 5 -5 z  m 27 -12 c -4 -3 -10 -3 -14 0 -3 4 0 7 7 7 7 0 10 -3 7 -7 z  m 323 3 c 0 -2 -7 -7 -16 -10 -8 -3 -12 -2 -9 4 6 10 25 14 25 6 z  m -280 -11 c 0 -3 -2 -5 -5 -5 -3 0 -5 2 -5 5 0 3 2 5 5 5 3 0 5 -2 5 -5 z  m 148 -17 c -38 -7 -66 -7 -85 0 -23 9 -12 10 57 10 l 85 -1 -57 -9 z  m -468 -2 c 0 -2 -7 -7 -16 -10 -8 -3 -12 -2 -9 4 6 10 25 14 25 6 z  m 879 -92 l 3 -18 -23 16 c -13 8 -26 24 -28 34 l -3 18 23 -16 c 13 -8 26 -24 28 -34 z  m -949 21 c 0 -3 -2 -5 -5 -5 -3 0 -5 2 -5 5 0 3 2 5 5 5 3 0 5 -2 5 -5 z  m -64 -20 c -21 -7 -43 -18 -49 -24 -13 -13 -27 -14 -27 -3 0 14 55 41 85 41 l 30 0 -39 -14 z  m 1098 -95 c 14 0 15 -2 4 -14 l -13 -14 -18 16 c -11 9 -24 26 -29 37 l -11 20 25 -22 c 13 -13 32 -23 42 -23 z  m -550 -85 l 5 -80 -9 60 c -6 35 -17 65 -26 72 -14 10 -15 15 -4 28 21 25 28 6 34 -80 z "></path></g></g><g id="l7FepJA2HlIKjbTaOfBKIiU" fill="rgb(255,153,51)" style="transform: none;"><g style="transform: none;"><path id="pAACLOnr9" d="M 870 1835 l 0 -35 30 0 30 0 0 -174 0 -175 -55 16 c -31 9 -58 13 -61 10 -3 -3 -7 -20 -7 -38 l -2 -33 60 -17 c 35 -9 61 -22 63 -30 4 -20 82 -42 82 -23 0 9 8 10 28 5 20 -5 28 -15 30 -34 4 -35 -1 -34 -139 4 -61 17 -115 27 -120 22 -4 -4 -9 -21 -11 -37 l -3 -28 175 -49 c 96 -27 176 -49 178 -49 1 0 2 32 2 70 0 39 1 70 3 70 2 0 41 -11 88 -25 46 -13 90 -25 97 -25 7 0 12 14 12 38 l 0 37 -102 28 c -57 16 -133 37 -170 48 l -68 20 0 219 0 220 -70 0 -70 0 0 -35 z "></path><path id="p1AwsLrXpS" d="M 1070 1661 c 0 -116 3 -212 8 -214 4 -3 22 -8 40 -12 l 32 -7 0 221 0 221 -40 0 -40 0 0 -209 z "></path><path id="pWuIj6C5c" d="M 1340 1835 l 0 -35 25 0 25 0 0 -278 0 -279 55 -15 55 -15 55 15 55 15 0 279 0 278 25 0 25 0 0 35 0 35 -65 0 -65 0 0 -285 0 -285 -30 0 -30 0 0 285 0 285 -65 0 -65 0 0 -35 z "></path><path id="p1F6cuHqs0" d="M 1850 1650 c 0 -238 -2 -232 54 -210 l 26 10 0 210 0 210 -40 0 -40 0 0 -220 z "></path><path id="pvoyvKgx2" d="M 1988 1648 l -3 -221 -167 -46 -168 -46 0 -37 c 0 -21 5 -38 10 -38 9 0 124 30 171 45 l 19 6 0 -70 c 0 -39 1 -71 3 -71 1 0 81 22 177 49 l 175 49 -3 28 c -2 16 -7 33 -11 37 -5 5 -59 -5 -120 -22 -138 -38 -143 -39 -139 -4 2 19 10 29 31 34 19 5 27 4 27 -5 0 -10 9 -11 40 -3 22 6 40 17 40 24 0 7 28 21 63 31 l 62 19 -2 32 c 0 18 -3 35 -6 37 -3 3 -30 -1 -61 -9 l -56 -15 0 174 0 174 30 0 30 0 0 35 0 35 -70 0 -70 0 -2 -222 z "></path><path id="p10VNjL5vf" d="M 1192 1199 l 3 -42 153 -42 153 -43 152 43 152 42 3 41 3 41 -68 -19 c -37 -11 -107 -30 -155 -43 l -87 -24 -133 37 c -74 20 -144 41 -156 44 l -23 8 3 -43 z "></path><path id="pRkQ6sj1d" d="M 677 1036 c -52 -19 -68 -35 -65 -65 2 -21 8 -25 28 -23 24 2 71 3 204 2 70 0 106 19 106 56 0 31 -21 39 -56 21 l -28 -14 -40 18 c -48 22 -96 23 -149 5 z "></path><path id="pDmVo2rkS" d="M 1923 988 c -24 -6 -35 -16 -39 -36 -4 -15 -15 -38 -24 -52 -10 -14 -27 -43 -38 -65 -27 -54 -107 -135 -160 -163 -86 -44 -315 -17 -383 45 -14 12 -29 23 -33 23 -10 0 -56 48 -56 57 0 3 -12 22 -26 40 -17 22 -29 53 -33 86 l -6 52 -38 9 c -23 6 -41 6 -47 0 -16 -17 18 -141 54 -197 47 -70 53 -77 111 -118 60 -42 111 -64 184 -79 30 -6 60 -15 66 -20 23 -19 230 14 280 45 59 36 133 123 169 197 38 79 69 175 58 181 -4 2 -22 0 -39 -5 z "></path><path id="p16CCKk7d8" d="M 2324 965 c -5 -12 -24 -15 -84 -15 l -78 0 -26 -31 c -14 -17 -26 -40 -26 -51 l 0 -21 48 8 c 26 3 77 10 113 13 85 9 119 33 119 85 l 0 27 -30 0 c -18 0 -33 -6 -36 -15 z "></path><path id="p5iyLG4gS" d="M 1240 914 c 12 -52 57 -111 115 -150 l 52 -34 69 0 c 98 0 191 17 224 41 30 23 90 130 90 160 0 15 -8 19 -34 19 -37 0 -51 -12 -61 -50 -12 -49 -42 -72 -111 -86 -97 -21 -136 -9 -202 61 -49 52 -89 75 -133 75 -14 0 -16 -6 -9 -36 z "></path><path id="pvFImyXDn" d="M 1498 893 c 6 -2 18 -2 25 0 6 3 1 5 -13 5 -14 0 -19 -2 -12 -5 z "></path><path id="p1AA96coGd" d="M 1025 610 c -19 -36 -43 -50 -87 -50 -48 0 -108 -43 -108 -77 0 -47 43 -55 110 -19 25 13 58 26 73 30 16 4 45 24 65 45 20 21 43 40 50 42 10 3 11 11 3 32 l -11 27 -39 0 -40 0 -16 -30 z "></path><path id="p10eejDqeS" d="M 1890 581 c -19 -36 -11 -65 28 -102 20 -20 46 -51 57 -69 11 -18 32 -42 47 -53 l 27 -20 41 39 c 54 52 52 110 -3 82 -26 -13 -74 28 -83 70 -4 23 -17 40 -38 53 -40 24 -63 24 -76 0 z "></path><path id="pe16J3giQ" d="M 1447 452 c -21 -23 -23 -88 -3 -95 7 -3 17 -22 20 -41 6 -30 2 -42 -20 -71 l -27 -35 18 -20 c 10 -11 25 -20 33 -20 21 0 83 71 77 89 -2 9 -6 54 -7 101 -1 50 -7 90 -14 98 -18 18 -58 15 -77 -6 z "></path></g></g></svg>
